<svg xmlns="http://www.w3.org/2000/svg" xmlns:xlink="http://www.w3.org/1999/xlink" width="60px" height="60px" viewBox="0 0 60 60" version="1.1">
    <!-- Generator: Sketch 52.6 (67491) - http://www.bohemiancoding.com/sketch -->
    <title>018 - Shop</title>
    <desc>Created with Sketch.</desc>
    <g id="Page-1" stroke="none" stroke-width="1" fill="none" fill-rule="evenodd">
        <g id="018---Shop">
            <g id="Icons_copy" transform="translate(1.000000, 1.000000)">
                <polygon id="Path" fill="#FFDC00" points="53 13 53 52 15 52 10 52 5 52 5 13"/>
                <rect id="Rectangle" fill="#FF8401" x="50" y="13" width="3" height="39"/>
                <path d="M56,10 L2,10 L7.417,0.971 C7.77845119,0.368588112 8.42947097,-6.7590441e-06 9.132,-2.22044605e-16 L48.868,-2.22044605e-16 C49.570529,-6.75904411e-06 50.2215488,0.368588112 50.583,0.971 L56,10 Z" id="Path" fill="#FFDC00"/>
                <path d="M50.583,0.971 C50.2215488,0.368588112 49.570529,-6.7590441e-06 48.868,2.22044605e-16 L45.868,2.22044605e-16 C46.570529,-6.75904411e-06 47.2215488,0.368588112 47.583,0.971 L53,10 L56,10 L50.583,0.971 Z" id="Path" fill="#FF8401"/>
                <path d="M2,10 L8,10 L8,15 C8,16.6568542 6.65685425,18 5,18 C3.34314575,18 2,16.6568542 2,15 L2,10 Z" id="Path" fill="#FFDC00"/>
                <path d="M8,10 L14,10 L14,15 C14,16.6568542 12.6568542,18 11,18 C9.34314575,18 8,16.6568542 8,15 L8,10 Z" id="Path" fill="#DB4E6C"/>
                <path d="M14,10 L20,10 L20,15 C20,16.6568542 18.6568542,18 17,18 C15.3431458,18 14,16.6568542 14,15 L14,10 Z" id="Path" fill="#FFDC00"/>
                <path d="M20,10 L26,10 L26,15 C26,16.6568542 24.6568542,18 23,18 C21.3431458,18 20,16.6568542 20,15 L20,10 Z" id="Path" fill="#DB4E6C"/>
                <path d="M26,10 L32,10 L32,15 C32,16.6568542 30.6568542,18 29,18 C27.3431458,18 26,16.6568542 26,15 L26,10 Z" id="Path" fill="#FFDC00"/>
                <path d="M32,10 L38,10 L38,15 C38,16.6568542 36.6568542,18 35,18 C33.3431458,18 32,16.6568542 32,15 L32,10 Z" id="Path" fill="#DB4E6C"/>
                <path d="M38,10 L44,10 L44,15 C44,16.6568542 42.6568542,18 41,18 C39.3431458,18 38,16.6568542 38,15 L38,10 Z" id="Path" fill="#FFDC00"/>
                <path d="M44,10 L50,10 L50,15 C50,16.6568542 48.6568542,18 47,18 C45.3431458,18 44,16.6568542 44,15 L44,10 Z" id="Path" fill="#DB4E6C"/>
                <path d="M50,10 L56,10 L56,15 C56,16.6568542 54.6568542,18 53,18 C51.3431458,18 50,16.6568542 50,15 L50,10 Z" id="Path" fill="#FFDC00"/>
                <path d="M53,10 L53,15 C52.9976542,16.0674872 52.425812,17.0525807 51.5,17.584 C51.9540847,17.8536489 52.4718941,17.9972547 53,18 C54.6568542,18 56,16.6568542 56,15 L56,10 L53,10 Z" id="Path" fill="#FF8401"/>
                <path d="M15,52 L55,52 C56.6568542,52 58,53.3431458 58,55 L58,57 C58,57.5522847 57.5522847,58 57,58 L1,58 C0.44771525,58 0,57.5522847 0,57 L0,55 C-4.4408921e-16,53.3431458 1.34314575,52 3,52 L15,52 Z" id="Path" fill="#FFDC00"/>
                <path d="M55,52 L52,52 C53.6568542,52 55,53.3431458 55,55 L55,57 C55,57.5522847 54.5522847,58 54,58 L57,58 C57.5522847,58 58,57.5522847 58,57 L58,55 C58,53.3431458 56.6568542,52 55,52 Z" id="Path" fill="#FF8401"/>
                <rect id="Rectangle" fill="#48BDFF" x="9" y="22" width="40" height="26" rx="1"/>
                <path d="M48,22 L45,22 C45.5522847,22 46,22.4477153 46,23 L46,47 C46,47.5522847 45.5522847,48 45,48 L48,48 C48.5522847,48 49,47.5522847 49,47 L49,23 C49,22.4477153 48.5522847,22 48,22 Z" id="Path" fill="#2C98F6"/>
                <path d="M37.995,27.986 C37.9982832,28.5107865 37.7911895,29.0150148 37.42,29.386 L23.383,43.421 C22.816712,43.9897974 21.9627351,44.1597727 21.2218083,43.8511629 C20.4808814,43.542553 20.0000698,42.8166134 20.005,42.014 C20.0017168,41.4892135 20.2088105,40.9849852 20.58,40.614 L34.617,26.58 C35.1831601,26.0113359 36.0368912,25.8412994 36.7777253,26.1496513 C37.5185595,26.4580033 37.9995208,27.1835689 37.995,27.986 Z" id="Path" fill="#FFFFFF"/>
                <circle id="Oval" fill="#FFFFFF" cx="23" cy="29" r="3"/>
                <path d="M23,26 C22.4718941,26.0027453 21.9540847,26.1463511 21.5,26.416 C22.4273539,26.9458262 22.9996803,27.9319639 22.9996803,29 C22.9996803,30.0680361 22.4273539,31.0541738 21.5,31.584 C21.9540847,31.8536489 22.4718941,31.9972547 23,32 C24.6568542,32 26,30.6568542 26,29 C26,27.3431458 24.6568542,26 23,26 Z" id="Path" fill="#CCCCCC"/>
                <circle id="Oval" fill="#FFFFFF" cx="35" cy="41" r="3"/>
                <path d="M35,38 C34.4718941,38.0027453 33.9540847,38.1463511 33.5,38.416 C34.4273539,38.9458262 34.9996803,39.9319639 34.9996803,41 C34.9996803,42.0680361 34.4273539,43.0541738 33.5,43.584 C33.9540847,43.8536489 34.4718941,43.9972547 35,44 C36.6568542,44 38,42.6568542 38,41 C38,39.3431458 36.6568542,38 35,38 Z" id="Path" fill="#CCCCCC"/>
            </g>
            <g id="Icons_copy_2" transform="translate(1.000000, 1.000000)" fill="#FFFFFF">
                <path d="M1,58 L4,58 C3.44771525,58 3,57.5522847 3,57 L3,55 C3,53.3431458 4.34314575,52 6,52 L8,52 L8,18 C6.34314575,18 5,16.6568542 5,15 L5,10 L10.417,0.971 C10.7784512,0.368588112 11.429471,-6.7590441e-06 12.132,-2.22044605e-16 L9.132,-2.22044605e-16 C8.42947097,-6.7590441e-06 7.77845119,0.368588112 7.417,0.971 L2,10 L2,15 C2,16.6568542 3.34314575,18 5,18 L5,52 L3,52 C1.34314575,52 0,53.3431458 -2.22044605e-16,55 L-2.22044605e-16,57 C-1.88737914e-15,57.2652165 0.10535684,57.5195704 0.292893219,57.7071068 C0.480429597,57.8946432 0.73478351,58 1,58 Z" id="Path"/>
            </g>
            <g id="Icons">
                <rect id="Rectangle" fill="#FFFFFF" x="5" y="45" width="2" height="8"/>
                <path d="M6.02,50 C5.46771525,50.0027614 5.01776142,49.5572847 5.015,49.005 C5.01223858,48.4527153 5.45771525,48.0027614 6.01,48 L6.02,48 C6.57228475,48 7.02,48.4477153 7.02,49 C7.02,49.5522847 6.57228475,50 6.02,50 Z" id="Path" fill="#000000"/>
                <path d="M2,60 L58,60 C59.1045695,60 60,59.1045695 60,58 L60,56 C60,53.790861 58.209139,52 56,52 L55,52 L55,19.858 C56.7606851,19.4034067 57.9931852,17.8184116 58,16 L58,11 C57.9973517,10.8831467 57.9739896,10.7676904 57.931,10.659 C57.92,10.63 57.908,10.603 57.895,10.575 C57.8845449,10.5458856 57.8721848,10.5174909 57.858,10.49 L52.44,1.456 C51.8949041,0.555200139 50.9198808,0.00345741612 49.867,0 L10.133,0 C9.0798148,0.00327767239 8.10456794,0.555525889 7.56,1.457 L2.143,10.485 C2.12881516,10.5124909 2.11645512,10.5408856 2.106,10.57 C2.093,10.598 2.081,10.625 2.07,10.654 C2.02608464,10.7641959 2.0023729,10.8813996 2,11 L2,16 C2.00681482,17.8184116 3.23931486,19.4034067 5,19.858 L5,45 C5,45.5522847 5.44771525,46 6,46 C6.55228475,46 7,45.5522847 7,45 L7,19.858 C7.77651329,19.6559391 8.47372358,19.2236687 9,18.618 C9.74988567,19.495087 10.8460459,20.0000811 12,20.0000811 C13.1539541,20.0000811 14.2501143,19.495087 15,18.618 C15.7498857,19.495087 16.8460459,20.0000811 18,20.0000811 C19.1539541,20.0000811 20.2501143,19.495087 21,18.618 C21.7498857,19.495087 22.8460459,20.0000811 24,20.0000811 C25.1539541,20.0000811 26.2501143,19.495087 27,18.618 C27.7498857,19.495087 28.8460459,20.0000811 30,20.0000811 C31.1539541,20.0000811 32.2501143,19.495087 33,18.618 C33.7498857,19.495087 34.8460459,20.0000811 36,20.0000811 C37.1539541,20.0000811 38.2501143,19.495087 39,18.618 C39.7498857,19.495087 40.8460459,20.0000811 42,20.0000811 C43.1539541,20.0000811 44.2501143,19.495087 45,18.618 C45.7498857,19.495087 46.8460459,20.0000811 48,20.0000811 C49.1539541,20.0000811 50.2501143,19.495087 51,18.618 C51.5262764,19.2236687 52.2234867,19.6559391 53,19.858 L53,52 L16,52 C15.4477153,52 15,52.4477153 15,53 C15,53.5522847 15.4477153,54 16,54 L56,54 C57.1045695,54 58,54.8954305 58,56 L58,58 L2,58 L2,56 C2,54.8954305 2.8954305,54 4,54 L11,54 C11.5522847,54 12,53.5522847 12,53 C12,52.4477153 11.5522847,52 11,52 L4,52 C1.790861,52 2.705415e-16,53.790861 0,56 L0,58 C1.3527075e-16,59.1045695 0.8954305,60 2,60 Z M9.274,2.486 C9.45615781,2.18546013 9.78156885,2.00135098 10.133,2 L49.867,2 C50.2184312,2.00135098 50.5438422,2.18546013 50.726,2.486 L55.233,10 L4.767,10 L9.274,2.486 Z M6,18 C4.8954305,18 4,17.1045695 4,16 L4,12 L8,12 L8,16 C8,17.1045695 7.1045695,18 6,18 Z M12,18 C10.8954305,18 10,17.1045695 10,16 L10,12 L14,12 L14,16 C14,17.1045695 13.1045695,18 12,18 Z M18,18 C16.8954305,18 16,17.1045695 16,16 L16,12 L20,12 L20,16 C20,17.1045695 19.1045695,18 18,18 Z M24,18 C22.8954305,18 22,17.1045695 22,16 L22,12 L26,12 L26,16 C26,17.1045695 25.1045695,18 24,18 Z M30,18 C28.8954305,18 28,17.1045695 28,16 L28,12 L32,12 L32,16 C32,17.1045695 31.1045695,18 30,18 Z M36,18 C34.8954305,18 34,17.1045695 34,16 L34,12 L38,12 L38,16 C38,17.1045695 37.1045695,18 36,18 Z M42,18 C40.8954305,18 40,17.1045695 40,16 L40,12 L44,12 L44,16 C44,17.1045695 43.1045695,18 42,18 Z M48,18 C46.8954305,18 46,17.1045695 46,16 L46,12 L50,12 L50,16 C50,17.1045695 49.1045695,18 48,18 Z M52,16 L52,12 L56,12 L56,16 C56,17.1045695 55.1045695,18 54,18 C52.8954305,18 52,17.1045695 52,16 Z" id="Shape" fill="#000000" fill-rule="nonzero"/>
                <path d="M49,50 C50.1045695,50 51,49.1045695 51,48 L51,24 C51,22.8954305 50.1045695,22 49,22 L11,22 C9.8954305,22 9,22.8954305 9,24 L9,48 C9,49.1045695 9.8954305,50 11,50 L49,50 Z M11,24 L49,24 L49,48 L11,48 L11,24 Z" id="Shape" fill="#000000" fill-rule="nonzero"/>
                <path d="M39.995,28.986 C39.9997994,28.1938477 39.6876228,27.4326698 39.128,26.872 C37.9469702,25.7471746 36.0910298,25.7471746 34.91,26.872 L20.871,40.911 C19.7067837,42.0760447 19.7074553,43.9642837 20.8725,45.1285 C22.0375447,46.2927163 23.9257837,46.2920447 25.09,45.127 L39.129,31.089 C39.6869568,30.531798 39.9987953,29.7745274 39.995,28.986 Z M37.714,29.676 L23.676,43.713 C23.2864797,44.0818962 22.6765203,44.0818962 22.287,43.713 C21.9123463,43.3254034 21.9123463,42.7105966 22.287,42.323 L36.324,28.287 C36.6039121,28.0030062 37.0284335,27.9178495 37.3962187,28.0719187 C37.7640038,28.2259879 38.0010782,28.5882942 37.995,28.987 C37.9969831,29.2449537 37.8958176,29.4930072 37.714,29.676 Z" id="Shape" fill="#000000" fill-rule="nonzero"/>
                <path d="M24,34 C26.209139,34 28,32.209139 28,30 C28,27.790861 26.209139,26 24,26 C21.790861,26 20,27.790861 20,30 C20,32.209139 21.790861,34 24,34 Z M24,28 C25.1045695,28 26,28.8954305 26,30 C26,31.1045695 25.1045695,32 24,32 C22.8954305,32 22,31.1045695 22,30 C22,28.8954305 22.8954305,28 24,28 Z" id="Shape" fill="#000000" fill-rule="nonzero"/>
                <path d="M36,38 C33.790861,38 32,39.790861 32,42 C32,44.209139 33.790861,46 36,46 C38.209139,46 40,44.209139 40,42 C40,39.790861 38.209139,38 36,38 Z M36,44 C34.8954305,44 34,43.1045695 34,42 C34,40.8954305 34.8954305,40 36,40 C37.1045695,40 38,40.8954305 38,42 C38,43.1045695 37.1045695,44 36,44 Z" id="Shape" fill="#000000" fill-rule="nonzero"/>
            </g>
        </g>
    </g>
</svg>